<?xml version="1.0" standalone="no"?>
 <!DOCTYPE svg PUBLIC "-//W3C//DTD SVG 1.1//EN" 
 "http://www.w3.org/Graphics/SVG/1.1/DTD/svg11.dtd"> 
<svg xmlns="http://www.w3.org/2000/svg" version="1.1" 
    width="9.5377cm" height="5.6007cm" viewBox="0 0 37550 22050 ">
<title>SVG Picture created as gpib_arduino-F.Fab.svg date 2019/05/03 16:58:42 </title>
  <desc>Picture generated by PCBNEW </desc>
<g style="fill:#000000; fill-opacity:1;stroke:#000000; stroke-opacity:1;
stroke-linecap:round; stroke-linejoin:round; "
 transform="translate(0 0) scale(1 1)">
</g>
<g style="fill:#000000; fill-opacity:0.0; 
stroke:#000000; stroke-width:-0.000393701; stroke-opacity:1; 
stroke-linecap:round; stroke-linejoin:round;">
</g>
<g style="fill:#000000; fill-opacity:0.0; 
stroke:#000000; stroke-width:59.0551; stroke-opacity:1; 
stroke-linecap:round; stroke-linejoin:round;">
<path d="M5836 195
L6023 195
" />
<path d="M5798 307
L5929 -86
L6061 307
" />
<path d="M6192 307
L6192 45
" />
<path d="M6192 120
L6211 82
L6229 63
L6267 45
L6304 45
" />
<path d="M6604 307
L6604 -86
" />
<path d="M6604 288
L6567 307
L6492 307
L6454 288
L6436 270
L6417 232
L6417 120
L6436 82
L6454 63
L6492 45
L6567 45
L6604 63
" />
<path d="M6960 45
L6960 307
" />
<path d="M6792 45
L6792 251
L6811 288
L6848 307
L6904 307
L6942 288
L6960 270
" />
<path d="M7148 307
L7148 45
" />
<path d="M7148 -86
L7129 -67
L7148 -48
L7167 -67
L7148 -86
L7148 -48
" />
<path d="M7335 45
L7335 307
" />
<path d="M7335 82
L7354 63
L7392 45
L7448 45
L7485 63
L7504 101
L7504 307
" />
<path d="M7748 307
L7710 288
L7692 270
L7673 232
L7673 120
L7692 82
L7710 63
L7748 45
L7804 45
L7842 63
L7860 82
L7879 120
L7879 232
L7860 270
L7842 288
L7804 307
L7748 307
" />
<path d="M7954 345
L8254 345
" />
<path d="M8348 -86
L8348 232
L8367 270
L8385 288
L8423 307
L8498 307
L8535 288
L8554 270
L8573 232
L8573 -86
" />
<path d="M8760 45
L8760 307
" />
<path d="M8760 82
L8779 63
L8817 45
L8873 45
L8910 63
L8929 101
L8929 307
" />
<path d="M9173 307
L9135 288
L9116 270
L9098 232
L9098 120
L9116 82
L9135 63
L9173 45
L9229 45
L9266 63
L9285 82
L9304 120
L9304 232
L9285 270
L9266 288
L9229 307
L9173 307
" />
<path d="M9379 345
L9679 345
" />
<path d="M9754 288
L9810 307
L9904 307
L9941 288
L9960 270
L9979 232
L9979 195
L9960 157
L9941 138
L9904 120
L9829 101
L9791 82
L9773 63
L9754 26
L9754 -11
L9773 -48
L9791 -67
L9829 -86
L9923 -86
L9979 -67
" />
<path d="M10148 307
L10148 -86
" />
<path d="M10316 307
L10316 101
L10298 63
L10260 45
L10204 45
L10166 63
L10148 82
" />
<path d="M10504 307
L10504 45
" />
<path d="M10504 -86
L10485 -67
L10504 -48
L10523 -67
L10504 -86
L10504 -48
" />
<path d="M10841 288
L10804 307
L10729 307
L10691 288
L10673 251
L10673 101
L10691 63
L10729 45
L10804 45
L10841 63
L10860 101
L10860 138
L10673 176
" />
<path d="M11085 307
L11047 288
L11029 251
L11029 -86
" />
<path d="M11404 307
L11404 -86
" />
<path d="M11404 288
L11366 307
L11291 307
L11254 288
L11235 270
L11216 232
L11216 120
L11235 82
L11254 63
L11291 45
L11366 45
L11404 63
" />
<path d="M37529 29
L37529 22029
" />
<path d="M6529 29
L37529 29
" />
<path d="M37529 22029
L6529 22029
" />
<path d="M6529 22029
L6529 29
" />
</g> 
</svg>
