<?xml version="1.0" standalone="no"?>
 <!DOCTYPE svg PUBLIC "-//W3C//DTD SVG 1.1//EN" 
 "http://www.w3.org/Graphics/SVG/1.1/DTD/svg11.dtd"> 
<svg xmlns="http://www.w3.org/2000/svg" version="1.1" 
    width="9.5377cm" height="5.6007cm" viewBox="0 0 37550 22050 ">
<title>SVG Picture created as gpib_arduino-B.Fab.svg date 2019/05/03 16:58:42 </title>
  <desc>Picture generated by PCBNEW </desc>
<g style="fill:#000000; fill-opacity:1;stroke:#000000; stroke-opacity:1;
stroke-linecap:round; stroke-linejoin:round; "
 transform="translate(0 0) scale(1 1)">
</g>
<g style="fill:#000000; fill-opacity:0.0; 
stroke:#000000; stroke-width:-0.000393701; stroke-opacity:1; 
stroke-linecap:round; stroke-linejoin:round;">
</g>
<g style="fill:#000000; fill-opacity:0.0; 
stroke:#000000; stroke-width:59.0551; stroke-opacity:1; 
stroke-linecap:round; stroke-linejoin:round;">
<path d="M30826 12512
L30808 12475
L30808 12419
L30826 12362
L30864 12325
L30901 12306
L30976 12287
L31032 12287
L31107 12306
L31145 12325
L31182 12362
L31201 12419
L31201 12456
L31182 12512
L31164 12531
L31032 12531
L31032 12456
" />
<path d="M31201 12700
L30808 12700
L30808 12850
L30826 12887
L30845 12906
L30883 12925
L30939 12925
L30976 12906
L30995 12887
L31014 12850
L31014 12700
" />
<path d="M31201 13093
L30808 13093
" />
<path d="M30995 13412
L31014 13468
L31032 13487
L31070 13506
L31126 13506
L31164 13487
L31182 13468
L31201 13431
L31201 13281
L30808 13281
L30808 13412
L30826 13450
L30845 13468
L30883 13487
L30920 13487
L30958 13468
L30976 13450
L30995 13412
L30995 13281
" />
<path d="M31239 13581
L31239 13881
" />
<path d="M31182 14143
L31201 14106
L31201 14031
L31182 13993
L31164 13975
L31126 13956
L31014 13956
L30976 13975
L30958 13993
L30939 14031
L30939 14106
L30958 14143
" />
<path d="M31201 14368
L31182 14331
L31164 14312
L31126 14293
L31014 14293
L30976 14312
L30958 14331
L30939 14368
L30939 14425
L30958 14462
L30976 14481
L31014 14500
L31126 14500
L31164 14481
L31182 14462
L31201 14425
L31201 14368
" />
<path d="M30939 14668
L31201 14668
" />
<path d="M30976 14668
L30958 14687
L30939 14724
L30939 14781
L30958 14818
L30995 14837
L31201 14837
" />
<path d="M30939 15024
L31201 15024
" />
<path d="M30976 15024
L30958 15043
L30939 15081
L30939 15137
L30958 15174
L30995 15193
L31201 15193
" />
<path d="M31182 15531
L31201 15493
L31201 15418
L31182 15381
L31145 15362
L30995 15362
L30958 15381
L30939 15418
L30939 15493
L30958 15531
L30995 15549
L31032 15549
L31070 15362
" />
<path d="M31182 15887
L31201 15849
L31201 15774
L31182 15737
L31164 15718
L31126 15699
L31014 15699
L30976 15718
L30958 15737
L30939 15774
L30939 15849
L30958 15887
" />
<path d="M30939 15999
L30939 16149
" />
<path d="M30808 16056
L31145 16056
L31182 16074
L31201 16112
L31201 16149
" />
<path d="M31201 16337
L31182 16299
L31164 16281
L31126 16262
L31014 16262
L30976 16281
L30958 16299
L30939 16337
L30939 16393
L30958 16431
L30976 16449
L31014 16468
L31126 16468
L31164 16449
L31182 16431
L31201 16393
L31201 16337
" />
<path d="M31201 16637
L30939 16637
" />
<path d="M31014 16637
L30976 16655
L30958 16674
L30939 16712
L30939 16749
" />
<path d="M37529 29
L37529 22029
" />
<path d="M6529 29
L37529 29
" />
<path d="M37529 22029
L6529 22029
" />
<path d="M6529 22029
L6529 29
" />
</g> 
</svg>
